<?xml version="1.0" encoding="iso-8859-1"?>
<!-- Generator: Adobe Illustrator 19.0.0, SVG Export Plug-In . SVG Version: 6.00 Build 0)  -->
<svg version="1.1" id="Layer_1" xmlns="http://www.w3.org/2000/svg" xmlns:xlink="http://www.w3.org/1999/xlink" x="0px" y="0px"
	 viewBox="0 0 496.158 496.158" style="enable-background:new 0 0 496.158 496.158;" xml:space="preserve">
<path style="fill:#48A1AF;" d="M0,248.085C0,111.063,111.069,0.003,248.075,0.003c137.013,0,248.083,111.061,248.083,248.082
	c0,137.002-111.07,248.07-248.083,248.07C111.069,496.155,0,385.087,0,248.085z"/>
<path style="fill:#FFFFFF;" d="M248.077,76.01c95.037,0,172.07,77.038,172.07,172.067c0.002,95.033-77.034,172.072-172.071,172.07
	c-95.025,0.002-172.063-77.039-172.064-172.071C76.013,153.046,153.052,76.01,248.077,76.01z"/>
<g>
	<path style="fill:#48A1AF;" d="M248.077,94.964c0,0-0.01,153.122-0.009,153.121c0.003-0.003-153.118,0-153.118,0
		c0,84.571,68.553,153.119,153.118,153.119h0.009c84.565,0,153.117-68.548,153.117-153.119v-0.002
		C401.194,163.512,332.642,94.964,248.077,94.964z"/>
	<circle style="fill:#48A1AF;" cx="157.529" cy="157.549" r="9.958"/>
</g>
<g>
</g>
<g>
</g>
<g>
</g>
<g>
</g>
<g>
</g>
<g>
</g>
<g>
</g>
<g>
</g>
<g>
</g>
<g>
</g>
<g>
</g>
<g>
</g>
<g>
</g>
<g>
</g>
<g>
</g>
</svg>
